<?xml version="1.0" encoding="UTF-8"?>
<svg width="20px" height="16px" viewBox="0 0 20 16" version="1.1" xmlns="http://www.w3.org/2000/svg" xmlns:xlink="http://www.w3.org/1999/xlink">
    <!-- Generator: Sketch 53 (72520) - https://sketchapp.com -->
    <title>archive</title>
    <desc>Created with Sketch.</desc>
    <g id="Icons" stroke="none" stroke-width="1" fill="none" fill-rule="evenodd">
        <g id="Desktop-HD" transform="translate(-77.000000, -253.000000)" fill="#000000" fill-rule="nonzero">
            <g id="archive" transform="translate(77.000000, 253.250000)">
                <path d="M16.3636364,14 L16.3636364,4.68888884 C16.3636364,4.24706107 16.7218085,3.88888889 17.1636363,3.88888889 C17.6054641,3.88888889 17.9636363,4.24706107 17.9636363,4.68888884 L17.9636363,14.8 C17.9636363,15.2418277 17.6054641,15.5999999 17.1636363,15.5999999 L2.43636359,15.5999999 C1.99453582,15.5999999 1.63636364,15.2418277 1.63636364,14.8 L1.63636364,4.68888884 C1.63636364,4.24706107 1.99453582,3.88888889 2.43636359,3.88888889 C2.87819136,3.88888889 3.23636354,4.24706107 3.23636354,4.68888884 L3.23636354,14 L16.3636364,14 Z" id="Path"></path>
                <path d="M1.5999999,1.5999999 L1.5999999,3.88888889 L18,3.88888889 L18,1.5999999 L1.5999999,1.5999999 Z M0.799999952,1.24344979e-14 L18.8,1.24344979e-14 C19.2418277,1.24344979e-14 19.5999999,0.358172179 19.5999999,0.799999952 L19.5999999,4.68888884 C19.5999999,5.13071661 19.2418277,5.48888879 18.8,5.48888879 L0.799999952,5.48888879 C0.358172179,5.48888879 0,5.13071661 0,4.68888884 L0,0.799999952 C0,0.358172179 0.358172179,1.24344979e-14 0.799999952,1.24344979e-14 Z" id="Rectangle"></path>
                <path d="M8.16363632,8.5999999 C7.72180854,8.5999999 7.36363636,8.24182773 7.36363636,7.79999995 C7.36363636,7.35817218 7.72180854,7 8.16363632,7 L11.4363636,7 C11.8781914,7 12.2363635,7.35817218 12.2363635,7.79999995 C12.2363635,8.24182773 11.8781914,8.5999999 11.4363636,8.5999999 L8.16363632,8.5999999 Z" id="Path"></path>
            </g>
        </g>
    </g>
</svg>