<?xml version="1.0" encoding="UTF-8"?>
<svg width="16px" height="18px" viewBox="0 0 16 18" version="1.1" xmlns="http://www.w3.org/2000/svg" xmlns:xlink="http://www.w3.org/1999/xlink">
    <!-- Generator: Sketch 53 (72520) - https://sketchapp.com -->
    <title>Calendar</title>
    <desc>Created with Sketch.</desc>
    <g id="Icons" stroke="none" stroke-width="1" fill="none" fill-rule="evenodd">
        <g id="Desktop-HD" transform="translate(-79.000000, -525.000000)" fill="#000000" fill-rule="nonzero">
            <g id="Calendar" transform="translate(79.000000, 525.000000)">
                <path d="M2.39999986,3.1999999 C1.95817208,3.1999999 1.5999999,3.55817208 1.5999999,3.99999986 L1.5999999,15.2 C1.5999999,15.6418278 1.95817208,16 2.39999986,16 L13.2,16 C13.6418278,16 14,15.6418278 14,15.2 L14,3.99999986 C14,3.55817208 13.6418278,3.1999999 13.2,3.1999999 L2.39999986,3.1999999 Z M2.39999986,1.6 L13.2,1.6 C14.5254834,1.6 15.5999999,2.67451654 15.5999999,3.99999986 L15.5999999,15.2 C15.5999999,16.5254834 14.5254834,17.5999999 13.2,17.5999999 L2.39999986,17.5999999 C1.07451654,17.5999999 1.11022302e-16,16.5254834 0,15.2 L0,3.99999986 C-1.11022302e-16,2.67451654 1.07451654,1.6 2.39999986,1.6 Z" id="Rectangle"></path>
                <path d="M10.1111111,0.799999952 C10.1111111,0.358172179 10.4692833,2.26485497e-14 10.9111111,2.26485497e-14 C11.3529388,2.26485497e-14 11.711111,0.358172179 11.711111,0.799999952 L11.711111,3.99999995 C11.711111,4.44182773 11.3529388,4.7999999 10.9111111,4.7999999 C10.4692833,4.7999999 10.1111111,4.44182773 10.1111111,3.99999995 L10.1111111,0.799999952 Z" id="Path"></path>
                <path d="M3.88888889,0.799999952 C3.88888889,0.358172179 4.24706107,2.26485497e-14 4.68888884,2.26485497e-14 C5.13071661,2.26485497e-14 5.48888879,0.358172179 5.48888879,0.799999952 L5.48888879,3.99999995 C5.48888879,4.44182773 5.13071661,4.7999999 4.68888884,4.7999999 C4.24706107,4.7999999 3.88888889,4.44182773 3.88888889,3.99999995 L3.88888889,0.799999952 Z" id="Path"></path>
                <path d="M0.799999952,7.9999999 C0.358172179,7.9999999 0,7.64182773 0,7.19999995 C0,6.75817218 0.358172179,6.4 0.799999952,6.4 L14.8,6.4 C15.2418277,6.4 15.5999999,6.75817218 15.5999999,7.19999995 C15.5999999,7.64182773 15.2418277,7.9999999 14.8,7.9999999 L0.799999952,7.9999999 Z" id="Path"></path>
            </g>
        </g>
    </g>
</svg>