<?xml version="1.0" encoding="UTF-8"?>
<svg width="18px" height="18px" viewBox="0 0 18 18" version="1.1" xmlns="http://www.w3.org/2000/svg" xmlns:xlink="http://www.w3.org/1999/xlink">
    <!-- Generator: Sketch 53 (72520) - https://sketchapp.com -->
    <title>Clock</title>
    <desc>Created with Sketch.</desc>
    <g id="Icons" stroke="none" stroke-width="1" fill="none" fill-rule="evenodd">
        <g id="Desktop-HD" transform="translate(-78.000000, -467.000000)" fill="#000000" fill-rule="nonzero">
            <g id="Clock" transform="translate(78.000000, 467.250000)">
                <path d="M8.79999995,17.5999999 C3.93989418,17.5999999 0,13.6601057 0,8.79999995 C0,3.93989418 3.93989418,0 8.79999995,0 C13.6601057,0 17.5999999,3.93989418 17.5999999,8.79999995 C17.5999999,13.6601057 13.6601057,17.5999999 8.79999995,17.5999999 Z M8.79999995,16 C12.7764502,16 16,12.7764502 16,8.79999995 C16,4.82354973 12.7764502,1.5999999 8.79999995,1.5999999 C4.82354973,1.5999999 1.5999999,4.82354973 1.5999999,8.79999995 C1.5999999,12.7764502 4.82354973,16 8.79999995,16 Z" id="Oval"></path>
                <path d="M9.5999999,8.30557279 L12.3577708,9.68445824 C12.7529536,9.88204963 12.913133,10.362588 12.7155417,10.7577708 C12.5179503,11.1529536 12.0374119,11.313133 11.6422291,11.1155417 L8.4422291,9.51554166 C8.17120189,9.38002806 8,9.10301758 8,8.79999995 L8,3.99999995 C8,3.55817218 8.35817218,3.2 8.79999995,3.2 C9.24182773,3.2 9.5999999,3.55817218 9.5999999,3.99999995 L9.5999999,8.30557279 Z" id="Path"></path>
            </g>
        </g>
    </g>
</svg>