<?xml version="1.0" encoding="UTF-8"?>
<svg width="12px" height="20px" viewBox="0 0 12 20" version="1.1" xmlns="http://www.w3.org/2000/svg" xmlns:xlink="http://www.w3.org/1999/xlink">
    <!-- Generator: Sketch 53 (72520) - https://sketchapp.com -->
    <title>Dollar</title>
    <desc>Created with Sketch.</desc>
    <g id="Icons" stroke="none" stroke-width="1" fill="none" fill-rule="evenodd">
        <g id="Desktop-HD" transform="translate(-81.000000, -688.000000)" fill="#000000" fill-rule="nonzero">
            <g id="Dollar" transform="translate(81.000000, 688.250000)">
                <path d="M5,0.799999952 C5,0.358172179 5.35817218,0 5.79999995,0 C6.24182773,0 6.5999999,0.358172179 6.5999999,0.799999952 L6.5999999,18.8 C6.5999999,19.2418277 6.24182773,19.5999999 5.79999995,19.5999999 C5.35817218,19.5999999 5,19.2418277 5,18.8 L5,0.799999952 Z" id="Path"></path>
                <path d="M9.96666662,3.27272727 C10.4084944,3.27272727 10.7666666,3.63089945 10.7666666,4.07272723 C10.7666666,4.514555 10.4084944,4.87272718 9.96666662,4.87272718 L3.71666662,4.87272718 C2.54441153,4.87272718 1.5999999,5.79996769 1.5999999,6.93636359 C1.5999999,8.07275949 2.54441153,9 3.71666662,9 L7.8833333,9 C9.93273923,9.00000004 11.5999998,10.6369469 11.5999998,12.6636363 C11.5999998,14.6903258 9.93273923,16.3272726 7.88333329,16.3272726 L0.799999952,16.3272726 C0.358172179,16.3272726 2.52242671e-13,15.9691005 2.52242671e-13,15.5272727 C2.52242671e-13,15.0854449 0.358172179,14.7272727 0.799999952,14.7272727 L7.88333327,14.7272727 C9.05558834,14.7272727 9.99999994,13.8000322 9.99999994,12.6636363 C9.99999994,11.5272404 9.05558834,10.5999999 7.88333329,10.5999999 L3.71666662,10.5999999 C1.66726066,10.5999999 2.52242671e-13,8.96305307 2.52242671e-13,6.93636359 C2.52242671e-13,4.90967411 1.66726066,3.27272727 3.71666662,3.27272727 L9.96666662,3.27272727 Z" id="Path"></path>
            </g>
        </g>
    </g>
</svg>