<?xml version="1.0" encoding="UTF-8"?>
<svg width="47px" height="45px" viewBox="0 0 47 45" version="1.1" xmlns="http://www.w3.org/2000/svg" xmlns:xlink="http://www.w3.org/1999/xlink">
    <!-- Generator: Sketch 53 (72520) - https://sketchapp.com -->
    <title>edit-3</title>
    <desc>Created with Sketch.</desc>
    <g id="Icons" stroke="none" stroke-width="1" fill="none" fill-rule="evenodd">
        <g id="Desktop-HD" transform="translate(-208.000000, -73.000000)" fill="#000000" fill-rule="nonzero">
            <g id="edit-3" transform="translate(208.000000, 73.000000)">
                <path d="M23.5,44.9842105 C22.2297451,44.9842105 21.2,43.9544654 21.2,42.6842105 C21.2,41.4139556 22.2297451,40.3842106 23.5,40.3842106 L44,40.3842106 C45.2702549,40.3842106 46.3,41.4139556 46.3,42.6842105 C46.3,43.9544654 45.2702549,44.9842105 44,44.9842105 L23.5,44.9842105 Z" id="Path"></path>
                <path d="M38.9435859,9.80822027 C39.5939177,9.14703576 39.850284,8.17429688 39.6098641,7.26206403 C39.3715545,6.35783842 38.6838691,5.65867688 37.8127166,5.42135687 C36.9497589,5.18626928 36.0283188,5.43728867 35.3897474,6.08651657 L7.36042801,34.583591 L6.14886281,39.5107265 L10.9218735,38.2975607 L38.9435859,9.80822027 Z M32.1102526,2.86085185 C33.9129961,1.02802408 36.5498499,0.309690379 39.0217903,0.98309822 C41.485536,1.65427364 43.4027025,3.60343398 44.0579762,6.08975948 C44.7111395,8.56807774 44.0140639,11.2130138 42.2230807,13.033885 L13.7508585,41.9812534 C13.4561591,42.2808708 13.0850005,42.4940168 12.6776916,42.5975434 L3.56658051,44.9133328 C1.88371456,45.3410703 0.351915047,43.8211551 0.766532472,42.1350088 L3.04431025,32.8718509 C3.14302782,32.4703909 3.348128,32.1029606 3.63803037,31.8082203 L32.1102526,2.86085185 Z" id="Path"></path>
            </g>
        </g>
    </g>
</svg>