<?xml version="1.0" encoding="UTF-8"?>
<svg width="32px" height="34px" viewBox="0 0 32 34" version="1.1" xmlns="http://www.w3.org/2000/svg" xmlns:xlink="http://www.w3.org/1999/xlink">
    <!-- Generator: Sketch 53 (72520) - https://sketchapp.com -->
    <title>helmet</title>
    <desc>Created with Sketch.</desc>
    <g id="Icons" stroke="none" stroke-width="1" fill="none" fill-rule="evenodd">
        <g id="Desktop-HD" transform="translate(-72.000000, -806.000000)" fill="#000000" fill-rule="nonzero">
            <g id="helmet" transform="translate(72.000000, 806.000000)">
                <path d="M27.6631,4.51261 C24.9627,1.60258 21.2067,0 17.0871,0 L15.9691,0 C7.67311,0 0.89363,6.60052 0.59425,14.8265 C0.59095,14.8536 0.5799,14.8785 0.5799,14.9064 L0.5799,15.3929 L0.5799,22.2371 L0.5799,22.3717 C0.5799,22.3853 0.58688,22.3975 0.58785,22.411 C0.62954,26.0975 1.98276,29.6425 4.42143,32.4089 C4.55192,32.5574 4.73865,32.6388 4.93041,32.6388 C4.99013,32.6388 5.05005,32.6309 5.10938,32.615 L29.8488,25.8562 C30.0793,25.7932 30.2596,25.6131 30.3236,25.3829 C30.6013,24.3828 30.7808,23.3542 30.8578,22.3263 L31.3761,15.4039 C31.684,11.2925 30.3651,7.42459 27.6631,4.51261 Z M1.93739,15.4809 L16.073,13.1202 C17.2232,12.9286 18.1384,13.1401 18.5823,13.7013 C19.0257,14.2626 19.0203,15.2011 18.5677,16.2761 L16.3549,21.5296 L1.93739,21.6855 L1.93739,15.4809 L1.93739,15.4809 Z M30.0229,15.3033 L29.5046,22.2257 C29.4437,23.0389 29.3124,23.8527 29.1135,24.65 L5.16639,31.192 C3.2528,28.8857 2.14389,26.03 1.97229,23.0426 L16.8147,22.8826 C17.085,22.8799 17.3279,22.7162 17.4326,22.4671 L19.8182,16.8033 C20.4786,15.2358 20.4179,13.8355 19.6472,12.86 C18.8764,11.8845 17.5271,11.5021 15.8496,11.7817 L2.00292,14.0939 C2.66102,6.96194 8.67014,1.35729 15.9691,1.35729 L17.0871,1.35729 C20.8249,1.35729 24.2274,2.80611 26.6684,5.43577 C29.1106,8.06756 30.3019,11.5721 30.0229,15.3033 Z" id="Shape"></path>
                <path d="M24.3325,14.9302 C22.8356,14.9302 21.6179,16.1477 21.6179,17.6448 C21.6179,19.1419 22.8356,20.3594 24.3325,20.3594 C25.8294,20.3594 27.0471,19.1419 27.0471,17.6448 C27.0471,16.1477 25.8292,14.9302 24.3325,14.9302 Z M24.3325,19.0021 C23.5841,19.0021 22.9752,18.393 22.9752,17.6448 C22.9752,16.8965 23.5839,16.2875 24.3325,16.2875 C25.0812,16.2875 25.6898,16.8965 25.6898,17.6448 C25.6898,18.393 25.081,19.0021 24.3325,19.0021 Z" id="Shape"></path>
                <path d="M17.3473,14.4505 C17.0823,14.1855 16.6528,14.1855 16.3877,14.4505 L14.3518,16.4865 C14.0867,16.7515 14.0867,17.181 14.3518,17.4461 C14.4842,17.5785 14.6577,17.6448 14.8315,17.6448 C15.0052,17.6448 15.1787,17.5785 15.3114,17.4461 L17.3473,15.4101 C17.6124,15.1451 17.6124,14.7156 17.3473,14.4505 Z" id="Path"></path>
                <path d="M28.7825,26.7761 L7.20988,32.6666 C6.84807,32.7653 6.63497,33.1385 6.73367,33.5003 C6.81627,33.8018 7.08947,34 7.38808,34 C7.44702,34 7.50732,33.9921 7.56704,33.9762 L29.1397,28.0857 C29.5015,27.987 29.7146,27.6137 29.6159,27.2519 C29.5168,26.8907 29.1424,26.678 28.7825,26.7761 Z" id="Path"></path>
            </g>
        </g>
    </g>
</svg>