<?xml version="1.0" encoding="UTF-8"?>
<svg width="34px" height="32px" viewBox="0 0 34 32" version="1.1" xmlns="http://www.w3.org/2000/svg" xmlns:xlink="http://www.w3.org/1999/xlink">
    <!-- Generator: Sketch 53 (72520) - https://sketchapp.com -->
    <title>home 2</title>
    <desc>Created with Sketch.</desc>
    <g id="Icons" stroke="none" stroke-width="1" fill="none" fill-rule="evenodd">
        <g id="Desktop-HD" transform="translate(-215.000000, -197.000000)" fill="#FFFFFF" fill-rule="nonzero">
            <g id="home-2" transform="translate(215.000000, 197.000000)">
                <path d="M33.6384,12.8168 L17.5219,1.01658 C17.2111,0.78907 16.7889,0.78907 16.4783,1.01658 L0.36159,12.8168 C-0.0320663,13.105 -0.117598,13.6578 0.170672,14.0515 C0.458942,14.4451 1.01177,14.5305 1.40536,14.2424 L17,2.82422 L32.5947,14.2423 C32.7519,14.3575 32.9347,14.413 33.1158,14.413 C33.3878,14.413 33.6562,14.2878 33.8293,14.0514 C34.1176,13.6578 34.0321,13.105 33.6384,12.8168 Z" id="Path"></path>
                <path d="M29.3679,14.4423 C28.8801,14.4423 28.4845,14.8378 28.4845,15.3257 L28.4845,29.3871 L21.4174,29.3871 L21.4174,21.7115 C21.4174,19.2757 19.4357,17.2942 17.0001,17.2942 C14.5644,17.2942 12.5827,19.2759 12.5827,21.7115 L12.5827,29.3872 L5.51558,29.3872 L5.51558,15.3258 C5.51558,14.8379 5.12,14.4424 4.63218,14.4424 C4.14436,14.4424 3.74878,14.8379 3.74878,15.3258 L3.74878,30.2707 C3.74878,30.7586 4.14436,31.1541 4.63218,31.1541 L13.4661,31.1541 C13.9307,31.1541 14.3109,30.7952 14.3461,30.3395 C14.3482,30.3188 14.3495,30.2963 14.3495,30.2707 L14.3495,21.7116 C14.3495,20.25 15.5385,19.061 17.0001,19.061 C18.4616,19.061 19.6506,20.2501 19.6506,21.7116 L19.6506,30.2707 C19.6506,30.2961 19.6519,30.3183 19.6541,30.3387 C19.6889,30.7947 20.0692,31.1541 20.534,31.1541 L29.368,31.1541 C29.8559,31.1541 30.2514,30.7586 30.2514,30.2707 L30.2514,15.3258 C30.2513,14.8378 29.8558,14.4423 29.3679,14.4423 Z" id="Path"></path>
            </g>
        </g>
    </g>
</svg>