<?xml version="1.0" encoding="UTF-8"?>
<svg width="18px" height="15px" viewBox="0 0 18 15" version="1.1" xmlns="http://www.w3.org/2000/svg" xmlns:xlink="http://www.w3.org/1999/xlink">
    <!-- Generator: Sketch 53 (72520) - https://sketchapp.com -->
    <title>Mail</title>
    <desc>Created with Sketch.</desc>
    <g id="Icons" stroke="none" stroke-width="1" fill="none" fill-rule="evenodd">
        <g id="Desktop-HD" transform="translate(-78.000000, -361.000000)" fill="#000000" fill-rule="nonzero">
            <g id="Mail" transform="translate(78.000000, 361.750000)">
                <path d="M2.45461571,1.55555556 C2.00648505,1.55555556 1.63643389,1.90733258 1.63643389,2.33333333 L1.63643389,11.6666667 C1.63643389,12.0926674 2.00648505,12.4444444 2.45461571,12.4444444 L15.5455248,12.4444444 C15.9936555,12.4444444 16.3637066,12.0926674 16.3637066,11.6666667 L16.3637066,2.33333333 C16.3637066,1.90733258 15.9936555,1.55555556 15.5455248,1.55555556 L2.45461571,1.55555556 Z M2.45461571,0 L15.5455248,0 C16.8973941,0 18.0000703,1.04822297 18.0000703,2.33333333 L18.0000703,11.6666667 C18.0000703,12.951777 16.8973941,14 15.5455248,14 L2.45461571,14 C1.10274636,14 7.02509331e-05,12.951777 7.02509331e-05,11.6666667 L7.02509331e-05,2.33333333 C7.02509331e-05,1.04822297 1.10274636,0 2.45461571,0 Z" id="Path"></path>
                <path d="M9.00007025,6.82837901 L16.712692,1.69615295 C17.0828778,1.44981944 17.593039,1.53540206 17.8521691,1.88730707 C18.1112991,2.23921207 18.0212707,2.72418021 17.6510849,2.97051372 L9.46926671,8.41495816 C9.18755023,8.60242135 8.81259027,8.60242135 8.53087379,8.41495816 L0.349055606,2.97051372 C-0.0211301823,2.72418021 -0.111158645,2.23921207 0.147971407,1.88730707 C0.407101458,1.53540206 0.917262745,1.44981944 1.28744853,1.69615295 L9.00007025,6.82837901 Z" id="Path"></path>
            </g>
        </g>
    </g>
</svg>