<?xml version="1.0" encoding="UTF-8"?>
<svg width="16px" height="20px" viewBox="0 0 16 20" version="1.1" xmlns="http://www.w3.org/2000/svg" xmlns:xlink="http://www.w3.org/1999/xlink">
    <!-- Generator: Sketch 53 (72520) - https://sketchapp.com -->
    <title>Map-pin</title>
    <desc>Created with Sketch.</desc>
    <g id="Icons" stroke="none" stroke-width="1" fill="none" fill-rule="evenodd">
        <g id="Desktop-HD" transform="translate(-79.000000, -194.000000)" fill="#000000" fill-rule="nonzero">
            <g id="Map-pin" transform="translate(79.000000, 194.500000)">
                <path d="M8.62665857,16.7602521 C9.44289758,16.1170545 10.2593983,15.3898585 11.0192379,14.5961604 C13.1419213,12.3788898 14.4,10.0964379 14.4,7.91666656 C14.3999999,4.41886319 11.5346224,1.58333333 8,1.58333333 C4.46537764,1.58333333 1.60000005,4.41886319 1.6,7.91666656 C1.6,10.0964379 2.85807874,12.3788898 4.98076215,14.5961604 C5.74060168,15.3898585 6.55710242,16.1170545 7.37334143,16.7602521 C7.59613687,16.9358152 7.80615077,17.0949414 8,17.2366549 C8.19384923,17.0949414 8.40386313,16.9358152 8.62665857,16.7602521 Z M12.1807621,15.6850894 C11.3656017,16.5365736 10.4946024,17.3123073 9.62334143,17.9988623 C9.31791885,18.2395358 9.03373895,18.4522532 8.77776744,18.6351958 C8.62177922,18.7466805 8.5081163,18.8245825 8.44376016,18.8670397 C8.17504063,19.04432 7.82495937,19.04432 7.55623984,18.8670397 C7.4918837,18.8245825 7.37822078,18.7466805 7.22223256,18.6351958 C6.96626105,18.4522532 6.68208115,18.2395358 6.37665857,17.9988623 C5.50539758,17.3123073 4.63439832,16.5365736 3.81923785,15.6850894 C1.44192126,13.2018391 -1.77635684e-16,10.5858535 0,7.91666655 C6.58374727e-08,3.54441233 3.58172205,-1.75785312e-16 8,0 C12.418278,1.75785312e-16 15.9999999,3.54441233 16,7.91666655 C16,10.5858535 14.5580787,13.2018391 12.1807621,15.6850894 Z" id="Path"></path>
                <path d="M8,11.0833332 C6.2326888,11.0833332 4.8,9.66556827 4.8,7.91666656 C4.8,6.16776485 6.2326888,4.74999989 8,4.74999989 C9.7673112,4.74999989 11.2,6.16776485 11.2,7.91666656 C11.2,9.66556827 9.7673112,11.0833332 8,11.0833332 Z M8,9.49999989 C8.8836556,9.49999989 9.6,8.79111741 9.6,7.91666656 C9.6,7.04221571 8.8836556,6.33333323 8,6.33333323 C7.1163444,6.33333323 6.4,7.04221571 6.4,7.91666656 C6.4,8.79111741 7.1163444,9.49999989 8,9.49999989 Z" id="Oval"></path>
            </g>
        </g>
    </g>
</svg>