<?xml version="1.0" encoding="UTF-8"?>
<svg width="18px" height="19px" viewBox="0 0 18 19" version="1.1" xmlns="http://www.w3.org/2000/svg" xmlns:xlink="http://www.w3.org/1999/xlink">
    <!-- Generator: Sketch 53 (72520) - https://sketchapp.com -->
    <title>Phone</title>
    <desc>Created with Sketch.</desc>
    <g id="Icons" stroke="none" stroke-width="1" fill="none" fill-rule="evenodd">
        <g id="Desktop-HD" transform="translate(-78.000000, -630.000000)" fill="#000000" fill-rule="nonzero">
            <g id="Phone" transform="translate(78.000000, 630.500000)">
                <path d="M16.2721043,13.0255356 L16.272356,13.0052406 C16.282661,12.5899284 15.9800862,12.2328198 15.5760299,12.1757837 C14.7293443,12.0641145 13.8980091,11.8570203 13.0960363,11.5577602 C12.7970419,11.4453686 12.4599792,11.517254 12.2361007,11.7386229 L11.1970098,12.7777139 C10.9365719,13.0381518 10.5342192,13.0924689 10.2140451,12.9104129 C8.0376672,11.6728903 6.23565868,9.87088172 4.99813602,7.69450382 C4.81608002,7.37432976 4.87039716,6.97197704 5.13083507,6.71153913 L6.16669782,5.67569449 C6.3912949,5.44856978 6.46318032,5.111507 6.35009741,4.81066682 C6.05152863,4.0105398 5.84443445,3.1792046 5.73379288,2.34004141 C5.67631595,1.93339175 5.32628272,1.63236317 4.9075588,1.63644467 L2.45378385,1.63644431 C2.22411786,1.63666059 2.0051173,1.73339464 1.85027894,1.90301656 C1.69544058,2.07263848 1.61902289,2.29952845 1.63843867,2.51549957 C1.89343051,4.91670353 2.71045893,7.22407693 4.02720644,9.2567271 C5.21897086,11.1322172 6.80905904,12.7223053 8.69091431,13.9181559 C10.7083636,15.2264644 13.0045701,16.0433073 15.3802928,16.3015838 C15.6097371,16.3223199 15.8372914,16.245363 16.0070519,16.0896195 C16.1768124,15.9338759 16.2730461,15.7137796 16.2721043,15.480081 L16.2721043,13.0255356 Z M17.9084612,15.4767601 C17.9112665,16.1678927 17.6225655,16.8281817 17.113284,17.2954124 C16.6040025,17.7626431 15.9213396,17.9935137 15.2182678,17.9298389 C12.5733665,17.6424488 10.0327527,16.7386614 7.80693214,15.2951832 C5.72868639,13.9745794 3.96669679,12.2125898 2.64996617,10.1403807 C1.19735004,7.8980553 0.293357451,5.34508601 0.00997011538,2.67553595 C-0.0520400356,1.98933381 0.177213034,1.30866392 0.641728118,0.79979815 C1.1062432,0.290932381 1.76324487,0.000730247151 2.45301335,8.1037239e-05 L4.89950654,0.000120661956 C6.13152152,-0.0120049855 7.18162121,0.891080754 7.35507966,2.11855218 C7.45061172,2.84288439 7.62777899,3.55408445 7.88251069,4.23674032 C8.21968546,5.13372331 8.00402918,6.14491164 7.3270098,6.82953204 L6.7402977,7.41624414 C7.70236167,8.92550222 8.98305102,10.206191 10.4923096,11.1682543 L11.0822632,10.578311 C11.7636373,9.90451974 12.7748256,9.68886346 13.6699628,10.0253469 C14.3544645,10.2807699 15.0656645,10.4579372 15.7973071,10.554467 C17.0277237,10.7280487 17.9337102,11.7935077 17.9084679,13.0346802 L17.9084612,15.4767601 Z" id="Path"></path>
            </g>
        </g>
    </g>
</svg>