<?xml version="1.0" encoding="UTF-8"?>
<svg width="14px" height="17px" viewBox="0 0 14 17" version="1.1" xmlns="http://www.w3.org/2000/svg" xmlns:xlink="http://www.w3.org/1999/xlink">
    <!-- Generator: Sketch 53 (72520) - https://sketchapp.com -->
    <title>User</title>
    <desc>Created with Sketch.</desc>
    <g id="Icons" stroke="none" stroke-width="1" fill="none" fill-rule="evenodd">
        <g id="Desktop-HD" transform="translate(-80.000000, -138.000000)" fill="#000000" fill-rule="nonzero">
            <g id="User" transform="translate(80.000000, 138.750000)">
                <path d="M14,15.2 C14,15.6418278 13.651777,16 13.2222222,16 C12.7926674,16 12.4444444,15.6418278 12.4444444,15.2 L12.4444444,13.6 C12.4444444,12.2745166 11.3997755,11.2 10.1111111,11.2 L3.88888889,11.2 C2.60022447,11.2 1.55555556,12.2745166 1.55555556,13.6 L1.55555556,15.2 C1.55555556,15.6418278 1.20733258,16 0.777777778,16 C0.348222972,16 0,15.6418278 0,15.2 L0,13.6 C0,11.390861 1.74111486,9.6 3.88888889,9.6 L10.1111111,9.6 C12.2588851,9.6 14,11.390861 14,13.6 L14,15.2 Z" id="Path"></path>
                <path d="M7,8 C4.85222597,8 3.11111111,6.209139 3.11111111,4 C3.11111111,1.790861 4.85222597,0 7,0 C9.14777403,0 10.8888889,1.790861 10.8888889,4 C10.8888889,6.209139 9.14777403,8 7,8 Z M7,6.4 C8.28866442,6.4 9.33333333,5.3254834 9.33333333,4 C9.33333333,2.6745166 8.28866442,1.6 7,1.6 C5.71133558,1.6 4.66666667,2.6745166 4.66666667,4 C4.66666667,5.3254834 5.71133558,6.4 7,6.4 Z" id="Oval"></path>
            </g>
        </g>
    </g>
</svg>